<svg width="153" height="128" viewBox="0 0 153 128" fill="none" xmlns="http://www.w3.org/2000/svg">
<path d="M57.0406 35.9521V91.5376C57.0406 94.7248 60.5138 96.6754 63.2137 95.018L104.524 69.6221C105.526 69.0075 106.354 68.1441 106.928 67.1148C107.502 66.0856 107.804 64.9251 107.804 63.7448C107.804 62.5645 107.502 61.404 106.928 60.3748C106.354 59.3456 105.526 58.4822 104.524 57.8676L63.201 32.4844C62.5864 32.1093 61.8838 31.9052 61.165 31.8931C60.4462 31.8809 59.7371 32.0612 59.1103 32.4153C58.4835 32.7694 57.9616 33.2847 57.5979 33.9084C57.2343 34.5321 57.0419 35.2418 57.0406 35.9648V35.9521ZM31.6892 0C23.2847 0 15.2244 3.35798 9.28156 9.33521C3.33868 15.3125 0 23.4193 0 31.8724V95.6172C0 104.07 3.33868 112.177 9.28156 118.154C15.2244 124.132 23.2847 127.49 31.6892 127.49H120.419C128.824 127.49 136.884 124.132 142.827 118.154C148.77 112.177 152.108 104.07 152.108 95.6172V31.8724C152.108 23.4193 148.77 15.3125 142.827 9.33521C136.884 3.35798 128.824 0 120.419 0H31.6892ZM12.6757 31.8724C12.6757 26.8006 14.6789 21.9364 18.2446 18.3501C21.8104 14.7638 26.6465 12.749 31.6892 12.749H120.419C125.462 12.749 130.298 14.7638 133.864 18.3501C137.429 21.9364 139.433 26.8006 139.433 31.8724V95.6172C139.433 100.689 137.429 105.553 133.864 109.14C130.298 112.726 125.462 114.741 120.419 114.741H31.6892C26.6465 114.741 21.8104 112.726 18.2446 109.14C14.6789 105.553 12.6757 100.689 12.6757 95.6172V31.8724Z" fill="#2C7135"/>
</svg>
