<svg width="18" height="25" viewBox="0 0 18 25" fill="none" xmlns="http://www.w3.org/2000/svg">
<path d="M7.44469 15.981C7.44469 14.837 7.69769 13.891 8.20369 13.143C8.73169 12.395 9.49069 11.57 10.4807 10.668C11.2067 10.008 11.7347 9.458 12.0647 9.018C12.4167 8.556 12.5927 8.039 12.5927 7.467C12.5927 6.653 12.2627 6.015 11.6027 5.553C10.9647 5.069 10.1067 4.827 9.02869 4.827C7.99469 4.827 7.07069 5.047 6.25669 5.487C5.46469 5.905 4.79369 6.499 4.24369 7.269L0.250691 4.926C1.17469 3.518 2.41769 2.429 3.97969 1.659C5.56369 0.888999 7.43369 0.504 9.58969 0.504C12.1197 0.504 14.1437 1.043 15.6617 2.121C17.2017 3.199 17.9717 4.695 17.9717 6.609C17.9717 7.511 17.8177 8.303 17.5097 8.985C17.2237 9.667 16.8607 10.25 16.4207 10.734C16.0027 11.196 15.4527 11.735 14.7707 12.351C13.9567 13.077 13.3627 13.693 12.9887 14.199C12.6147 14.683 12.4277 15.277 12.4277 15.981H7.44469ZM9.95269 24.264C9.05069 24.264 8.29169 23.978 7.67569 23.406C7.08169 22.812 6.78469 22.097 6.78469 21.261C6.78469 20.425 7.08169 19.732 7.67569 19.182C8.26969 18.61 9.02869 18.324 9.95269 18.324C10.8767 18.324 11.6357 18.61 12.2297 19.182C12.8237 19.732 13.1207 20.425 13.1207 21.261C13.1207 22.097 12.8127 22.812 12.1967 23.406C11.6027 23.978 10.8547 24.264 9.95269 24.264Z" fill="#2C7135"/>
</svg>
